<svg id="svg" version="1.1" xmlns="http://www.w3.org/2000/svg" xmlns:xlink="http://www.w3.org/1999/xlink" width="120" height="50" viewBox="0, 0, 400,117"><g id="svgg"><path id="path0" d="M254.333 26.804 C 250.399 27.839,246.360 31.852,241.513 39.542 C 240.333 41.413,240.156 41.266,239.602 37.958 C 238.551 31.679,238.074 30.667,236.163 30.667 C 234.674 30.667,233.959 31.878,234.416 33.628 C 237.554 45.645,238.454 52.749,238.667 67.167 C 238.818 77.348,238.879 78.497,239.511 83.061 C 239.927 86.060,240.021 86.287,241.000 86.680 C 241.614 86.927,243.114 87.118,243.185 86.958 C 243.196 86.935,243.260 82.021,243.328 76.038 C 243.396 70.054,243.499 65.112,243.556 65.055 C 243.822 64.789,245.449 66.264,249.914 70.820 C 264.702 85.913,268.742 89.221,273.667 90.267 C 278.641 91.323,281.460 88.913,284.115 81.333 C 284.505 80.219,284.558 80.223,285.263 81.428 C 288.135 86.339,293.672 88.464,298.431 86.483 C 304.226 84.071,309.568 75.267,312.145 63.882 C 312.529 62.184,312.591 62.242,313.947 65.583 C 319.412 79.043,326.199 87.479,332.274 88.365 C 336.222 88.940,340.699 86.093,342.500 81.859 C 344.499 77.161,341.644 76.961,337.045 81.477 C 335.239 83.249,334.612 83.575,333.000 83.578 C 328.958 83.585,323.339 78.910,319.584 72.417 C 313.655 62.165,313.136 50.642,318.163 40.857 C 319.536 38.184,319.085 35.833,317.199 35.833 C 315.666 35.833,315.003 37.721,313.834 45.417 C 313.008 50.854,312.332 55.034,312.259 55.153 C 312.220 55.215,312.067 55.975,311.918 56.841 C 309.786 69.255,305.192 78.520,299.493 81.901 C 293.452 85.485,289.239 83.489,285.943 75.478 C 282.549 67.229,286.493 44.763,293.050 35.000 C 296.523 29.829,300.456 29.550,303.644 34.249 C 305.520 37.013,308.289 43.627,308.913 46.833 C 309.290 48.769,309.314 48.833,309.663 48.833 C 311.202 48.833,311.603 44.670,310.499 40.167 C 307.840 29.325,301.853 24.543,295.661 28.316 C 291.328 30.956,285.741 39.202,283.518 46.240 C 281.182 53.635,281.080 70.534,283.332 77.080 L 283.641 77.978 280.405 81.281 L 277.169 84.583 275.626 84.569 C 270.769 84.523,266.923 81.952,257.333 72.344 C 250.272 65.268,247.662 63.008,244.704 61.406 C 242.971 60.468,243.059 60.282,245.583 59.552 C 247.620 58.963,247.809 58.892,250.000 57.886 C 256.623 54.846,262.169 47.555,263.161 40.583 C 264.450 31.525,260.402 25.208,254.333 26.804 M127.167 27.391 C 123.946 28.531,120.782 31.692,117.214 37.333 C 113.147 43.763,111.909 48.210,111.390 58.249 C 110.533 74.802,113.387 83.498,120.659 86.497 C 129.090 89.974,137.253 81.349,141.595 64.378 C 142.162 62.160,142.105 62.133,143.328 65.195 C 145.645 70.999,147.522 74.601,150.583 79.117 C 153.801 83.865,156.082 86.109,159.181 87.575 C 163.618 89.675,168.654 87.766,171.491 82.911 C 172.208 81.684,172.223 81.689,172.689 83.377 C 173.827 87.498,177.170 88.382,181.075 85.595 C 186.313 81.858,193.572 69.766,199.929 54.189 C 200.429 52.964,200.904 51.844,200.984 51.701 C 201.266 51.197,201.779 52.648,202.062 54.750 C 203.571 65.957,204.417 69.740,206.588 74.996 C 209.411 81.832,214.345 85.833,219.950 85.833 C 224.900 85.833,228.320 82.533,228.327 77.750 C 228.330 75.795,226.188 76.372,223.340 79.092 C 221.320 81.021,221.016 81.164,218.941 81.166 C 210.189 81.172,204.590 67.651,204.630 46.610 C 204.640 41.498,204.164 39.506,202.832 39.083 C 201.781 38.749,201.123 40.040,199.307 45.995 C 198.827 47.568,195.834 54.810,193.225 60.708 C 189.292 69.600,181.614 80.681,178.587 81.832 C 175.501 83.005,174.703 80.924,174.170 70.318 C 173.984 66.614,173.758 62.571,173.668 61.333 C 173.577 60.096,173.354 56.008,173.172 52.250 C 172.764 43.830,172.738 43.556,172.184 42.005 C 171.221 39.312,169.869 38.125,168.857 39.084 C 168.433 39.485,168.700 44.613,169.339 48.333 C 169.425 48.837,169.684 50.900,169.913 52.917 C 170.143 54.933,170.406 57.221,170.499 58.000 C 170.688 59.584,171.248 67.369,171.494 71.833 C 171.583 73.438,171.698 75.519,171.750 76.458 C 171.836 78.021,171.819 78.167,171.547 78.167 C 170.575 78.167,168.494 79.566,166.385 81.639 C 163.078 84.888,158.747 83.907,153.899 78.811 C 144.105 68.518,141.511 53.278,147.509 41.264 C 149.075 38.127,148.701 35.833,146.623 35.833 C 145.603 35.833,145.104 36.673,144.417 39.547 C 144.022 41.203,143.817 42.404,142.830 48.833 C 139.546 70.241,134.989 79.892,126.686 83.027 C 118.848 85.986,113.203 76.720,114.334 62.750 C 114.866 56.179,116.354 49.611,118.962 42.323 C 123.723 29.018,130.598 27.269,135.304 38.167 C 136.402 40.709,136.692 41.393,137.214 42.667 C 137.533 43.446,138.046 45.152,138.354 46.458 C 138.936 48.925,139.048 49.103,139.707 48.603 C 141.033 47.596,140.905 42.485,139.440 38.000 C 136.717 29.656,132.082 25.650,127.167 27.391 M259.232 30.477 C 263.961 33.158,258.388 45.872,249.552 52.561 C 246.798 54.646,242.506 56.508,242.273 55.718 C 240.923 51.138,242.901 42.633,246.620 37.025 C 249.890 32.095,256.256 28.789,259.232 30.477 M64.093 38.870 C 63.878 39.177,63.833 39.844,63.833 42.745 C 63.832 50.500,62.607 59.147,59.914 70.417 C 58.570 76.041,58.045 78.348,57.059 82.966 C 56.609 85.073,56.901 85.618,58.949 86.490 L 60.148 87.000 63.449 86.998 C 65.265 86.996,67.837 86.919,69.167 86.827 C 83.814 85.809,97.057 85.726,98.326 86.645 L 98.735 86.941 100.576 85.161 C 101.588 84.182,103.448 82.464,104.708 81.344 L 107.000 79.307 107.000 78.404 L 107.000 77.500 106.347 77.500 C 105.912 77.500,105.343 77.695,104.639 78.086 C 102.033 79.534,101.507 79.687,95.473 80.756 C 93.152 81.168,91.840 81.581,91.034 82.156 C 90.590 82.472,89.981 82.551,85.083 82.930 C 84.442 82.980,82.417 83.162,80.583 83.336 C 70.931 84.250,66.983 84.105,64.063 82.731 C 62.275 81.890,62.023 80.871,62.742 77.394 C 63.430 74.071,63.971 71.037,64.339 68.442 C 64.532 67.081,64.720 65.881,64.758 65.776 C 64.795 65.670,65.019 64.046,65.254 62.167 C 65.490 60.288,65.717 58.600,65.759 58.417 C 65.801 58.233,66.023 56.283,66.253 54.083 C 66.482 51.883,66.781 49.071,66.916 47.833 C 67.335 44.014,67.244 42.889,66.319 40.416 C 65.696 38.752,64.673 38.042,64.093 38.870 " stroke="none" fill="#f9f9f9" fill-rule="evenodd"></path><path id="path1" d="M348.750 0.179 C 342.823 0.567,339.381 0.871,339.090 1.032 C 338.878 1.150,335.904 1.260,330.590 1.346 C 317.983 1.553,306.259 1.865,306.167 1.997 C 306.121 2.063,304.546 2.162,302.667 2.219 C 295.060 2.446,285.563 2.872,285.250 3.000 C 285.067 3.075,281.054 3.298,276.333 3.495 C 271.612 3.693,267.600 3.919,267.417 3.996 C 267.233 4.074,263.033 4.302,258.083 4.502 C 253.133 4.702,248.933 4.928,248.750 5.004 C 247.833 5.384,236.065 5.552,217.962 5.444 C 172.414 5.173,164.500 5.104,164.500 4.973 C 164.500 4.790,135.713 4.791,135.600 4.973 C 135.553 5.049,130.542 5.161,124.465 5.220 C 109.796 5.362,101.684 5.588,90.917 6.154 C 89.267 6.240,85.217 6.433,81.917 6.582 C 78.617 6.731,75.767 6.915,75.583 6.991 C 75.400 7.067,72.404 7.297,68.925 7.501 C 65.446 7.705,62.484 7.931,62.342 8.002 C 62.200 8.074,59.761 8.299,56.924 8.503 C 54.086 8.707,51.648 8.933,51.507 9.006 C 51.366 9.078,49.300 9.305,46.917 9.509 C 44.533 9.713,42.558 9.944,42.528 10.023 C 42.497 10.102,42.235 10.165,41.944 10.163 C 41.055 10.158,34.422 10.882,34.333 10.994 C 34.172 11.198,32.900 11.488,31.333 11.677 C 30.462 11.782,29.600 11.931,29.417 12.009 C 29.233 12.086,27.208 12.308,24.917 12.502 C 22.625 12.696,20.600 12.919,20.417 12.998 C 20.233 13.077,19.558 13.186,18.917 13.241 C 16.863 13.416,13.586 13.862,13.500 13.979 C 13.454 14.041,12.592 14.227,11.583 14.393 C 10.575 14.560,9.525 14.796,9.250 14.919 C 8.975 15.042,8.193 15.296,7.513 15.484 C 6.832 15.671,6.232 15.886,6.179 15.961 C 6.127 16.036,5.747 16.206,5.335 16.338 C 4.924 16.471,4.473 16.693,4.333 16.831 C 4.193 16.970,3.892 17.167,3.664 17.269 C 1.813 18.101,0.345 20.485,0.340 22.667 C 0.338 23.465,0.766 25.512,0.966 25.661 C 1.031 25.710,1.186 26.050,1.309 26.417 C 1.539 27.100,2.375 28.987,2.711 29.583 C 2.815 29.767,3.123 30.329,3.397 30.833 C 3.670 31.337,3.945 31.787,4.008 31.833 C 4.070 31.879,4.276 32.222,4.465 32.594 C 4.654 32.967,4.927 33.370,5.071 33.490 C 5.215 33.610,5.333 33.800,5.333 33.913 C 5.333 34.026,5.502 34.303,5.708 34.528 C 5.915 34.754,6.267 35.271,6.492 35.678 C 6.716 36.084,6.962 36.492,7.037 36.583 C 7.375 36.996,8.452 38.802,8.653 39.292 C 8.774 39.590,8.925 39.833,8.987 39.833 C 9.049 39.833,9.200 40.115,9.324 40.458 C 9.447 40.802,9.730 41.485,9.953 41.976 C 10.176 42.466,10.444 43.493,10.548 44.258 C 10.773 45.903,10.964 46.033,12.461 45.562 C 13.350 45.282,13.384 45.283,13.596 45.595 C 14.314 46.650,14.975 47.355,15.491 47.618 C 15.814 47.782,16.164 47.996,16.268 48.092 C 16.373 48.189,17.237 48.404,18.188 48.571 C 19.139 48.737,20.065 48.977,20.245 49.103 C 20.426 49.230,20.689 49.335,20.829 49.337 C 21.478 49.346,21.915 49.934,21.614 50.393 C 21.460 50.629,21.333 50.928,21.333 51.057 C 21.333 51.187,21.230 51.378,21.104 51.482 C 20.093 52.322,19.971 60.833,20.971 60.833 C 21.034 60.833,21.184 61.152,21.304 61.542 C 21.425 61.931,21.818 62.867,22.178 63.622 C 22.539 64.376,22.833 65.070,22.833 65.163 C 22.833 65.257,22.901 65.333,22.984 65.333 C 23.066 65.333,23.210 65.552,23.303 65.819 L 23.472 66.304 22.445 66.473 C 21.879 66.566,21.079 66.690,20.667 66.747 C 20.254 66.805,19.767 66.916,19.583 66.995 C 19.400 67.073,18.425 67.264,17.417 67.419 C 16.408 67.574,15.283 67.834,14.917 67.995 C 14.550 68.157,14.063 68.334,13.833 68.389 C 12.363 68.741,10.167 70.866,10.167 71.936 C 10.167 72.154,10.092 72.333,10.000 72.333 C 9.908 72.333,9.833 72.497,9.833 72.698 C 9.833 72.899,9.667 73.306,9.463 73.603 L 9.093 74.143 6.755 74.197 C 3.558 74.270,3.398 74.355,3.470 75.945 C 3.521 77.085,3.281 78.500,3.035 78.500 C 2.970 78.500,2.731 78.856,2.504 79.292 C 2.277 79.727,2.036 80.123,1.969 80.173 C 1.099 80.805,1.198 83.851,2.106 84.383 C 2.422 84.568,2.390 85.086,2.042 85.435 C 1.700 85.776,1.611 88.769,1.931 89.183 C 2.030 89.311,2.284 89.942,2.495 90.583 C 2.705 91.225,2.929 91.787,2.993 91.833 C 3.282 92.043,3.667 94.057,3.667 95.363 C 3.667 96.907,3.935 97.523,4.713 97.760 C 5.969 98.143,5.726 99.406,4.003 101.451 C 3.455 102.101,3.804 103.113,4.708 103.500 C 5.190 103.707,5.621 103.930,5.667 103.996 C 5.712 104.063,6.184 104.278,6.714 104.475 C 7.244 104.672,7.844 104.937,8.047 105.064 C 8.250 105.191,8.829 105.426,9.333 105.587 C 9.837 105.747,10.331 105.941,10.430 106.019 C 10.528 106.096,11.128 106.316,11.763 106.507 C 12.397 106.698,13.142 106.957,13.417 107.082 C 13.692 107.207,14.442 107.438,15.083 107.596 C 15.725 107.753,16.325 107.937,16.417 108.004 C 16.596 108.135,18.331 108.575,19.417 108.765 C 19.783 108.829,20.121 108.936,20.167 109.004 C 20.212 109.071,21.225 109.293,22.417 109.497 C 23.608 109.702,24.709 109.933,24.863 110.012 C 25.017 110.090,26.517 110.316,28.197 110.512 C 29.876 110.709,31.400 110.932,31.583 111.008 C 32.771 111.500,42.395 111.826,55.865 111.830 C 63.758 111.832,68.016 111.891,68.083 112.000 C 68.147 112.102,69.519 112.168,71.635 112.170 C 76.456 112.174,85.688 112.688,86.417 112.992 C 86.600 113.069,88.135 113.299,89.829 113.504 C 91.522 113.709,93.022 113.937,93.162 114.011 C 93.435 114.155,96.257 114.667,96.780 114.667 C 96.953 114.667,97.481 114.418,97.953 114.114 C 98.425 113.809,99.135 113.456,99.531 113.329 C 99.926 113.202,100.298 113.028,100.356 112.944 C 100.662 112.504,100.821 113.091,100.721 114.283 L 100.613 115.551 101.860 115.438 C 103.104 115.325,104.141 115.553,104.417 116.001 C 105.436 117.650,109.324 117.212,109.331 115.447 C 109.335 114.390,109.549 114.167,110.559 114.167 C 112.475 114.167,112.939 111.919,111.095 111.574 L 110.439 111.452 110.894 111.060 C 112.009 110.102,112.885 110.594,113.539 112.546 C 113.729 113.116,113.938 113.621,114.002 113.667 C 114.065 113.712,114.243 114.131,114.396 114.596 C 114.549 115.061,114.784 115.586,114.918 115.762 C 115.052 115.939,115.299 116.262,115.467 116.480 C 115.697 116.780,115.982 116.897,116.636 116.959 C 117.620 117.054,117.617 117.061,117.313 115.646 C 117.103 114.665,117.316 114.333,118.158 114.333 C 118.438 114.333,118.949 114.017,119.637 113.417 C 120.862 112.348,121.016 112.317,121.522 113.042 C 121.730 113.340,121.950 113.621,122.010 113.667 C 122.216 113.823,122.626 114.749,122.748 115.333 C 123.040 116.731,123.754 117.204,124.787 116.681 C 127.244 115.436,128.625 115.218,131.735 115.584 C 132.918 115.723,133.968 115.900,134.068 115.977 C 134.509 116.317,139.139 117.000,141.007 117.000 C 142.568 117.000,145.097 116.491,146.039 115.988 C 146.389 115.801,148.449 115.780,148.528 115.963 C 148.825 116.654,156.086 117.220,157.333 116.649 C 158.613 116.064,159.659 116.041,160.306 116.586 L 160.851 117.045 173.134 116.939 C 179.889 116.881,189.317 116.785,194.083 116.726 C 199.938 116.653,204.805 116.688,209.083 116.834 C 214.052 117.003,216.422 117.008,220.083 116.857 C 231.834 116.370,240.463 116.292,284.617 116.271 C 320.798 116.254,330.193 116.207,330.358 116.042 C 330.502 115.898,331.194 115.832,332.575 115.830 C 336.631 115.825,350.833 115.155,350.833 114.970 C 350.833 114.895,351.318 114.833,351.910 114.833 C 353.355 114.833,359.664 114.193,360.083 114.004 C 360.267 113.921,361.842 113.689,363.583 113.489 C 365.325 113.289,366.787 113.075,366.833 113.013 C 366.879 112.952,368.379 112.728,370.167 112.515 C 371.954 112.303,373.492 112.073,373.583 112.004 C 373.675 111.936,375.100 111.714,376.750 111.512 C 378.400 111.310,379.900 111.080,380.083 111.000 C 380.267 110.920,381.767 110.695,383.417 110.500 C 385.067 110.305,386.547 110.075,386.706 109.989 C 386.865 109.904,387.203 109.833,387.456 109.833 C 389.341 109.830,393.527 104.350,394.597 100.483 C 394.760 99.896,394.948 99.379,395.016 99.332 C 395.084 99.285,395.303 98.423,395.504 97.415 C 395.705 96.408,395.935 95.433,396.015 95.250 C 396.408 94.349,396.649 90.643,396.844 82.500 C 396.922 79.246,397.060 75.646,397.151 74.500 C 397.470 70.483,397.884 66.583,398.001 66.500 C 398.197 66.361,398.682 60.297,398.849 55.898 C 398.935 53.616,399.041 51.038,399.084 50.167 C 399.491 41.932,399.691 35.561,399.601 33.667 C 399.459 30.667,399.160 27.456,399.004 27.250 C 398.935 27.158,398.830 26.558,398.771 25.917 C 398.597 24.030,398.129 21.333,397.976 21.333 C 397.897 21.333,397.833 21.197,397.833 21.031 C 397.833 20.621,397.174 18.128,397.009 17.918 C 396.937 17.826,396.712 17.244,396.509 16.625 C 396.306 16.006,396.088 15.500,396.025 15.500 C 395.962 15.500,395.732 15.050,395.514 14.500 C 395.295 13.950,395.065 13.500,395.002 13.500 C 394.939 13.500,394.794 13.294,394.680 13.042 C 394.045 11.638,390.777 8.333,390.024 8.333 C 389.928 8.333,389.790 8.236,389.717 8.117 C 389.643 7.998,389.215 7.679,388.766 7.408 C 388.316 7.138,387.603 6.709,387.182 6.456 C 386.761 6.203,386.004 5.796,385.500 5.553 C 384.996 5.310,384.561 5.056,384.534 4.989 C 384.506 4.923,384.019 4.696,383.450 4.486 C 382.882 4.276,382.379 4.055,382.333 3.994 C 382.287 3.933,381.725 3.712,381.083 3.503 C 380.442 3.293,379.822 3.047,379.706 2.955 C 379.522 2.810,378.590 2.537,377.167 2.212 C 376.938 2.160,376.712 2.068,376.667 2.008 C 376.565 1.874,374.560 1.399,373.417 1.238 C 372.958 1.173,372.546 1.063,372.500 0.993 C 372.405 0.848,369.167 0.415,366.333 0.169 C 364.126 -0.022,351.720 -0.015,348.750 0.179 M258.817 26.931 C 262.722 28.885,264.598 35.378,263.111 41.793 C 261.069 50.602,254.006 57.679,245.105 59.834 C 243.384 60.251,243.198 60.563,244.376 61.056 C 246.778 62.059,250.530 65.251,257.049 71.835 C 266.907 81.793,270.688 84.333,275.647 84.333 L 277.224 84.333 280.326 81.152 L 283.427 77.972 282.969 76.444 C 282.717 75.604,282.393 74.092,282.249 73.083 C 282.105 72.075,281.911 70.762,281.817 70.167 C 281.050 65.286,281.679 52.572,282.927 47.746 C 285.177 39.042,292.259 29.037,297.417 27.275 C 302.037 25.696,306.231 28.610,309.135 35.417 C 311.719 41.472,312.053 48.713,309.756 48.881 L 309.263 48.917 308.658 46.473 C 307.985 43.755,308.081 44.028,306.371 40.000 C 303.221 32.578,300.599 30.095,297.240 31.351 C 291.296 33.575,284.972 51.717,284.930 66.667 L 284.917 71.583 285.400 73.333 C 287.280 80.133,291.115 84.063,295.191 83.364 C 303.427 81.951,309.243 72.066,312.173 54.500 C 312.348 53.446,312.603 52.021,312.738 51.333 C 312.873 50.646,313.102 49.183,313.245 48.083 C 313.389 46.983,313.578 45.732,313.666 45.303 C 313.753 44.874,313.972 43.562,314.152 42.387 C 314.985 36.959,316.115 34.922,317.807 35.799 C 319.510 36.683,319.574 38.293,318.036 41.500 C 313.696 50.544,313.835 60.251,318.444 69.964 C 322.287 78.061,329.534 84.316,333.931 83.330 C 335.031 83.084,335.176 82.986,337.061 81.209 C 342.194 76.372,345.314 77.524,342.071 83.058 C 337.698 90.520,329.756 90.389,323.505 82.750 C 322.677 81.738,321.995 80.776,319.445 77.023 C 318.232 75.237,315.287 69.444,314.307 66.917 C 314.130 66.458,313.849 65.783,313.684 65.417 C 313.519 65.050,313.246 64.356,313.076 63.875 C 312.663 62.703,312.646 62.720,312.096 64.875 C 308.156 80.311,300.361 89.250,292.663 87.162 C 289.124 86.202,286.891 84.516,285.094 81.450 C 284.524 80.478,284.617 80.432,284.075 81.958 C 281.834 88.272,279.536 90.583,275.500 90.583 C 270.406 90.583,264.983 86.639,253.166 74.341 C 247.915 68.876,245.377 66.358,244.472 65.717 L 243.720 65.185 243.610 71.301 C 243.550 74.664,243.500 79.493,243.500 82.030 C 243.500 87.638,243.485 87.668,241.091 86.862 C 239.597 86.358,239.585 86.305,238.652 76.667 C 238.558 75.704,238.410 70.342,238.322 64.750 C 238.234 59.158,238.092 54.021,238.007 53.333 C 237.692 50.796,236.840 45.509,236.343 43.000 C 235.867 40.595,235.623 39.496,234.407 34.263 C 233.851 31.872,233.977 31.410,235.375 30.694 C 237.595 29.557,238.787 31.442,239.681 37.500 C 240.128 40.530,240.120 40.500,240.500 40.500 C 240.721 40.500,240.965 40.241,241.249 39.708 C 246.251 30.296,254.113 24.578,258.817 26.931 M131.833 27.267 C 134.112 28.183,136.254 30.502,137.976 33.917 C 141.076 40.065,141.855 48.290,139.395 48.907 C 138.779 49.062,138.719 48.958,138.335 47.079 C 137.905 44.975,137.365 43.348,136.310 40.968 C 135.850 39.931,135.376 38.817,135.256 38.491 C 133.187 32.868,129.584 30.022,126.417 31.508 C 122.414 33.386,117.675 43.593,115.678 54.637 C 115.501 55.616,115.278 56.760,115.184 57.181 C 114.179 61.627,114.195 71.563,115.211 74.333 C 118.543 83.421,123.110 85.642,129.574 81.318 C 136.431 76.732,139.834 67.690,143.244 45.000 C 144.399 37.310,145.406 34.937,147.198 35.680 C 148.911 36.389,149.124 38.346,147.784 41.053 C 142.407 51.917,143.614 64.608,151.018 75.083 C 155.355 81.219,161.168 84.669,164.417 83.036 C 164.692 82.897,165.658 82.080,166.565 81.219 C 168.468 79.411,169.680 78.557,170.814 78.225 L 171.617 77.990 171.557 77.203 C 171.524 76.771,171.385 73.942,171.247 70.917 C 171.109 67.892,170.884 64.254,170.747 62.833 C 169.806 53.105,169.721 52.354,168.817 45.667 C 168.625 44.246,168.427 42.282,168.378 41.302 L 168.287 39.521 168.797 39.010 C 169.464 38.343,169.851 38.367,170.692 39.125 C 172.187 40.473,172.761 42.334,172.992 46.583 C 173.087 48.325,173.205 50.125,173.254 50.583 C 173.303 51.042,173.529 55.092,173.755 59.583 C 174.621 76.807,174.790 78.724,175.586 80.407 C 176.866 83.113,179.333 82.127,183.070 77.417 C 186.597 72.971,191.732 64.055,194.253 58.000 C 194.463 57.496,194.909 56.446,195.244 55.667 C 195.579 54.887,196.031 53.800,196.249 53.250 C 196.466 52.700,196.882 51.688,197.172 51.000 C 198.380 48.139,199.131 46.205,199.246 45.661 C 200.561 39.438,202.694 37.358,204.282 40.750 L 204.750 41.750 204.858 48.083 C 205.216 68.942,210.422 81.000,219.071 81.000 C 221.089 81.000,221.271 80.906,223.583 78.665 C 227.145 75.214,229.313 75.799,228.242 79.923 C 226.079 88.258,214.311 87.952,208.760 79.417 C 208.402 78.867,207.972 78.213,207.805 77.965 C 207.637 77.717,207.500 77.473,207.500 77.423 C 207.500 77.373,207.308 76.938,207.073 76.458 C 204.851 71.914,203.355 66.000,202.256 57.417 C 201.789 53.777,201.586 52.639,201.310 52.124 L 201.114 51.757 200.947 52.170 C 200.152 54.137,198.349 58.423,198.109 58.917 C 197.976 59.192,197.662 59.867,197.412 60.417 C 187.836 81.464,179.698 90.583,174.218 86.404 C 173.341 85.735,172.798 84.713,172.322 82.834 L 172.132 82.085 171.774 82.760 C 168.021 89.848,160.241 90.493,154.312 84.208 C 150.532 80.201,144.687 70.212,143.088 65.027 C 143.022 64.813,142.775 64.215,142.538 63.698 L 142.108 62.758 141.810 64.140 C 141.076 67.553,139.220 72.740,137.505 76.175 C 133.048 85.097,127.460 88.826,121.397 86.925 C 113.205 84.357,110.141 74.761,111.322 55.376 C 111.772 47.976,113.773 42.061,117.875 36.000 C 122.950 28.502,127.626 25.576,131.833 27.267 M255.776 30.496 C 251.288 31.457,247.660 34.770,244.809 40.512 C 243.959 42.223,243.748 42.900,242.585 47.630 C 241.744 51.050,241.865 56.113,242.779 55.762 C 242.907 55.713,243.441 55.549,243.965 55.398 C 250.418 53.538,258.595 44.276,260.427 36.750 C 261.627 31.821,259.973 29.596,255.776 30.496 M65.534 38.792 C 66.883 40.232,67.621 43.366,67.260 46.125 C 67.119 47.202,66.887 49.396,66.744 51.000 C 66.601 52.604,66.378 54.667,66.249 55.583 C 66.119 56.500,65.895 58.337,65.750 59.667 C 65.605 60.996,65.413 62.496,65.323 63.000 C 65.232 63.504,64.973 65.229,64.747 66.833 C 64.268 70.218,63.522 74.561,62.927 77.417 C 61.522 84.168,64.540 84.792,87.667 82.524 C 90.427 82.253,90.815 82.177,91.370 81.796 C 92.056 81.327,94.510 80.692,97.333 80.254 C 100.458 79.769,102.263 79.225,104.023 78.237 C 105.323 77.508,105.781 77.333,106.400 77.333 L 107.167 77.333 107.167 78.375 L 107.167 79.417 106.125 80.311 C 104.264 81.908,102.286 83.715,100.502 85.448 C 98.909 86.995,98.729 87.124,98.475 86.894 C 97.512 86.022,88.874 85.936,74.851 86.657 C 60.019 87.420,59.305 87.383,57.359 85.746 C 56.626 85.129,56.583 84.566,57.081 82.083 C 57.634 79.319,57.931 78.018,59.566 71.167 C 62.565 58.602,63.925 48.666,63.609 41.634 C 63.474 38.610,64.266 37.439,65.534 38.792 " stroke="none" fill="#141414" fill-rule="evenodd"></path><path id="path2" d="M63.717 44.833 C 63.717 45.337,63.748 45.544,63.786 45.292 C 63.824 45.040,63.824 44.627,63.786 44.375 C 63.748 44.123,63.717 44.329,63.717 44.833 M114.209 65.917 C 114.211 66.283,114.245 66.414,114.285 66.206 C 114.324 65.999,114.323 65.699,114.281 65.540 C 114.239 65.380,114.207 65.550,114.209 65.917 M238.539 72.500 C 238.539 72.821,238.573 72.952,238.615 72.792 C 238.657 72.631,238.657 72.369,238.615 72.208 C 238.573 72.048,238.539 72.179,238.539 72.500 M251.333 72.385 C 251.333 72.414,251.577 72.658,251.875 72.927 L 252.417 73.417 251.927 72.875 C 251.471 72.370,251.333 72.257,251.333 72.385 M243.393 77.833 C 243.393 78.704,243.422 79.060,243.456 78.625 C 243.490 78.190,243.490 77.477,243.456 77.042 C 243.422 76.606,243.393 76.962,243.393 77.833 M256.167 77.385 C 256.167 77.414,256.410 77.658,256.708 77.927 L 257.250 78.417 256.760 77.875 C 256.304 77.370,256.167 77.257,256.167 77.385 M259.667 80.885 C 259.667 80.914,259.910 81.158,260.208 81.427 L 260.750 81.917 260.260 81.375 C 259.804 80.870,259.667 80.757,259.667 80.885 M210.833 81.917 C 211.144 82.237,211.436 82.500,211.482 82.500 C 211.528 82.500,211.311 82.237,211.000 81.917 C 210.689 81.596,210.397 81.333,210.351 81.333 C 210.305 81.333,210.522 81.596,210.833 81.917 M162.627 88.618 C 162.834 88.658,163.134 88.656,163.294 88.615 C 163.453 88.573,163.283 88.540,162.917 88.542 C 162.550 88.544,162.420 88.578,162.627 88.618 M333.127 88.618 C 333.334 88.658,333.634 88.656,333.794 88.615 C 333.953 88.573,333.783 88.540,333.417 88.542 C 333.050 88.544,332.920 88.578,333.127 88.618 " stroke="none" fill="#848484" fill-rule="evenodd"></path><path id="path3" d="M259.833 27.552 C 259.833 27.581,260.077 27.825,260.375 28.094 L 260.917 28.583 260.427 28.042 C 259.971 27.537,259.833 27.423,259.833 27.552 M123.073 29.708 L 122.583 30.250 123.125 29.760 C 123.423 29.491,123.667 29.248,123.667 29.219 C 123.667 29.090,123.529 29.203,123.073 29.708 M121.573 31.208 L 121.083 31.750 121.625 31.260 C 121.923 30.991,122.167 30.748,122.167 30.719 C 122.167 30.590,122.029 30.703,121.573 31.208 M302.160 32.708 C 302.850 33.444,303.000 33.577,303.000 33.451 C 303.000 33.425,302.644 33.068,302.208 32.660 L 301.417 31.917 302.160 32.708 M294.833 32.917 C 294.428 33.329,294.135 33.667,294.181 33.667 C 294.226 33.667,294.595 33.329,295.000 32.917 C 295.405 32.504,295.699 32.167,295.653 32.167 C 295.607 32.167,295.238 32.504,294.833 32.917 M124.406 32.875 L 123.917 33.417 124.458 32.927 C 124.756 32.658,125.000 32.414,125.000 32.385 C 125.000 32.257,124.862 32.370,124.406 32.875 M248.240 35.042 L 247.750 35.583 248.292 35.094 C 248.797 34.638,248.910 34.500,248.781 34.500 C 248.752 34.500,248.509 34.744,248.240 35.042 M263.558 37.167 C 263.558 37.946,263.587 38.265,263.622 37.875 C 263.657 37.485,263.657 36.848,263.622 36.458 C 263.587 36.069,263.558 36.387,263.558 37.167 M63.548 40.083 C 63.549 40.542,63.581 40.709,63.620 40.456 C 63.658 40.203,63.657 39.828,63.617 39.623 C 63.578 39.418,63.546 39.625,63.548 40.083 M263.372 39.833 C 263.372 40.154,263.406 40.285,263.448 40.125 C 263.490 39.965,263.490 39.702,263.448 39.542 C 263.406 39.381,263.372 39.512,263.372 39.833 M168.392 40.917 C 168.392 41.742,168.420 42.100,168.455 41.713 C 168.490 41.327,168.490 40.652,168.456 40.213 C 168.422 39.775,168.393 40.092,168.392 40.917 M63.718 43.083 C 63.719 43.633,63.750 43.838,63.787 43.539 C 63.825 43.239,63.824 42.789,63.786 42.539 C 63.748 42.288,63.717 42.533,63.718 43.083 M311.228 44.917 C 311.228 45.833,311.256 46.187,311.290 45.703 C 311.324 45.218,311.323 44.468,311.289 44.036 C 311.255 43.604,311.227 44.000,311.228 44.917 M67.372 44.333 C 67.372 44.654,67.406 44.785,67.448 44.625 C 67.490 44.465,67.490 44.202,67.448 44.042 C 67.406 43.881,67.372 44.012,67.372 44.333 M204.736 47.083 C 204.736 48.733,204.761 49.386,204.791 48.533 C 204.821 47.681,204.821 46.331,204.791 45.533 C 204.760 44.736,204.735 45.433,204.736 47.083 M67.205 45.667 C 67.205 45.987,67.240 46.119,67.282 45.958 C 67.323 45.798,67.323 45.535,67.282 45.375 C 67.240 45.215,67.205 45.346,67.205 45.667 M63.556 47.167 C 63.556 47.854,63.585 48.135,63.621 47.792 C 63.657 47.448,63.657 46.885,63.621 46.542 C 63.585 46.198,63.556 46.479,63.556 47.167 M140.037 48.299 L 139.658 48.917 140.079 48.449 C 140.311 48.192,140.500 47.911,140.500 47.824 C 140.500 47.579,140.444 47.637,140.037 48.299 M252.500 49.750 C 251.817 50.438,251.296 51.000,251.342 51.000 C 251.388 51.000,251.984 50.438,252.667 49.750 C 253.350 49.063,253.871 48.500,253.825 48.500 C 253.779 48.500,253.183 49.063,252.500 49.750 M63.372 49.500 C 63.372 49.821,63.406 49.952,63.448 49.792 C 63.490 49.631,63.490 49.369,63.448 49.208 C 63.406 49.048,63.372 49.179,63.372 49.500 M173.218 51.417 C 173.219 51.967,173.250 52.172,173.287 51.872 C 173.325 51.572,173.324 51.122,173.286 50.872 C 173.248 50.622,173.217 50.867,173.218 51.417 M241.887 51.833 C 241.887 52.429,241.917 52.673,241.954 52.375 C 241.991 52.077,241.991 51.590,241.954 51.292 C 241.917 50.994,241.887 51.237,241.887 51.833 M111.539 52.500 C 111.539 52.821,111.573 52.952,111.615 52.792 C 111.657 52.631,111.657 52.369,111.615 52.208 C 111.573 52.048,111.539 52.179,111.539 52.500 M144.398 55.083 C 144.398 56.275,144.425 56.741,144.457 56.118 C 144.489 55.496,144.489 54.521,144.457 53.951 C 144.424 53.382,144.398 53.892,144.398 55.083 M173.387 54.167 C 173.387 54.762,173.417 55.006,173.454 54.708 C 173.491 54.410,173.491 53.923,173.454 53.625 C 173.417 53.327,173.387 53.571,173.387 54.167 M66.372 53.833 C 66.372 54.154,66.406 54.285,66.448 54.125 C 66.490 53.965,66.490 53.702,66.448 53.542 C 66.406 53.381,66.372 53.512,66.372 53.833 M111.372 54.167 C 111.372 54.487,111.406 54.619,111.448 54.458 C 111.490 54.298,111.490 54.035,111.448 53.875 C 111.406 53.715,111.372 53.846,111.372 54.167 M281.724 56.917 C 281.724 57.650,281.754 57.929,281.789 57.537 C 281.824 57.145,281.824 56.545,281.788 56.204 C 281.752 55.863,281.723 56.183,281.724 56.917 M173.545 57.000 C 173.545 57.413,173.578 57.581,173.618 57.375 C 173.657 57.169,173.657 56.831,173.618 56.625 C 173.578 56.419,173.545 56.587,173.545 57.000 M111.217 57.667 C 111.217 58.171,111.248 58.377,111.286 58.125 C 111.324 57.873,111.324 57.460,111.286 57.208 C 111.248 56.956,111.217 57.163,111.217 57.667 M205.372 58.000 C 205.372 58.321,205.406 58.452,205.448 58.292 C 205.490 58.131,205.490 57.869,205.448 57.708 C 205.406 57.548,205.372 57.679,205.372 58.000 M238.408 65.000 C 238.408 68.254,238.431 69.585,238.458 67.958 C 238.485 66.331,238.485 63.669,238.458 62.042 C 238.431 60.415,238.408 61.746,238.408 65.000 M281.572 63.417 C 281.572 65.708,281.596 66.669,281.624 65.551 C 281.653 64.434,281.653 62.559,281.625 61.385 C 281.596 60.211,281.572 61.125,281.572 63.417 M173.709 60.250 C 173.711 60.617,173.745 60.747,173.785 60.540 C 173.824 60.332,173.823 60.032,173.781 59.873 C 173.739 59.714,173.707 59.883,173.709 60.250 M170.542 60.583 C 170.544 60.950,170.578 61.080,170.618 60.873 C 170.658 60.666,170.656 60.366,170.615 60.206 C 170.573 60.047,170.540 60.217,170.542 60.583 M114.539 61.833 C 114.539 62.154,114.573 62.285,114.615 62.125 C 114.657 61.965,114.657 61.702,114.615 61.542 C 114.573 61.381,114.539 61.512,114.539 61.833 M170.712 62.333 C 170.712 62.746,170.745 62.915,170.784 62.708 C 170.824 62.502,170.824 62.165,170.784 61.958 C 170.745 61.752,170.712 61.921,170.712 62.333 M111.060 63.500 C 111.060 64.371,111.088 64.727,111.123 64.292 C 111.157 63.856,111.157 63.144,111.123 62.708 C 111.088 62.273,111.060 62.629,111.060 63.500 M196.360 62.424 C 196.081 63.037,196.134 63.167,196.436 62.610 C 196.577 62.350,196.662 62.106,196.623 62.068 C 196.585 62.030,196.467 62.190,196.360 62.424 M114.387 64.000 C 114.387 64.596,114.417 64.840,114.454 64.542 C 114.491 64.244,114.491 63.756,114.454 63.458 C 114.417 63.160,114.387 63.404,114.387 64.000 M173.872 63.667 C 173.872 63.987,173.906 64.119,173.948 63.958 C 173.990 63.798,173.990 63.535,173.948 63.375 C 173.906 63.215,173.872 63.346,173.872 63.667 M284.721 66.917 C 284.722 67.558,284.752 67.800,284.788 67.455 C 284.824 67.109,284.824 66.584,284.787 66.288 C 284.750 65.992,284.721 66.275,284.721 66.917 M243.571 69.667 C 243.571 71.729,243.595 72.573,243.624 71.542 C 243.654 70.510,243.654 68.823,243.624 67.792 C 243.595 66.760,243.571 67.604,243.571 69.667 M114.214 67.250 C 114.216 67.708,114.248 67.876,114.286 67.623 C 114.325 67.369,114.324 66.994,114.284 66.789 C 114.244 66.584,114.213 66.792,114.214 67.250 M252.750 67.667 C 253.108 68.033,253.438 68.333,253.484 68.333 C 253.530 68.333,253.275 68.033,252.917 67.667 C 252.559 67.300,252.228 67.000,252.182 67.000 C 252.137 67.000,252.392 67.300,252.750 67.667 M281.712 68.833 C 281.712 69.246,281.745 69.415,281.784 69.208 C 281.824 69.002,281.824 68.665,281.784 68.458 C 281.745 68.252,281.712 68.421,281.712 68.833 M174.218 69.583 C 174.219 70.133,174.250 70.338,174.287 70.039 C 174.325 69.739,174.324 69.289,174.286 69.039 C 174.248 68.788,174.217 69.033,174.218 69.583 M114.383 70.000 C 114.383 70.504,114.415 70.710,114.453 70.458 C 114.491 70.206,114.491 69.794,114.453 69.542 C 114.415 69.290,114.383 69.496,114.383 70.000 M171.209 70.083 C 171.211 70.450,171.245 70.580,171.285 70.373 C 171.324 70.166,171.323 69.866,171.281 69.706 C 171.239 69.547,171.207 69.717,171.209 70.083 M256.250 71.167 C 257.163 72.083,257.948 72.833,257.994 72.833 C 258.040 72.833,257.330 72.083,256.417 71.167 C 255.503 70.250,254.719 69.500,254.673 69.500 C 254.627 69.500,255.337 70.250,256.250 71.167 M250.167 71.250 C 250.757 71.846,251.278 72.333,251.324 72.333 C 251.370 72.333,250.924 71.846,250.333 71.250 C 249.743 70.654,249.222 70.167,249.176 70.167 C 249.130 70.167,249.576 70.654,250.167 71.250 M174.387 72.333 C 174.387 72.929,174.417 73.173,174.454 72.875 C 174.491 72.577,174.491 72.090,174.454 71.792 C 174.417 71.494,174.387 71.737,174.387 72.333 M316.583 72.000 C 316.726 72.275,316.879 72.500,316.925 72.500 C 316.971 72.500,316.892 72.275,316.750 72.000 C 316.608 71.725,316.454 71.500,316.408 71.500 C 316.362 71.500,316.441 71.725,316.583 72.000 M171.385 73.417 C 171.386 73.967,171.417 74.172,171.454 73.872 C 171.491 73.572,171.490 73.122,171.452 72.872 C 171.414 72.622,171.384 72.867,171.385 73.417 M238.559 74.417 C 238.559 75.242,238.587 75.600,238.622 75.213 C 238.657 74.827,238.657 74.152,238.623 73.713 C 238.588 73.275,238.560 73.592,238.559 74.417 M174.545 75.167 C 174.545 75.579,174.578 75.748,174.618 75.542 C 174.657 75.335,174.657 74.998,174.618 74.792 C 174.578 74.585,174.545 74.754,174.545 75.167 M255.000 76.250 C 255.591 76.846,256.111 77.333,256.157 77.333 C 256.203 77.333,255.757 76.846,255.167 76.250 C 254.576 75.654,254.055 75.167,254.010 75.167 C 253.964 75.167,254.409 75.654,255.000 76.250 M171.553 76.667 C 171.553 77.262,171.584 77.506,171.621 77.208 C 171.658 76.910,171.658 76.423,171.621 76.125 C 171.584 75.827,171.553 76.071,171.553 76.667 M238.712 77.167 C 238.712 77.579,238.745 77.748,238.784 77.542 C 238.824 77.335,238.824 76.998,238.784 76.792 C 238.745 76.585,238.712 76.754,238.712 77.167 M228.389 78.000 C 228.389 78.688,228.419 78.969,228.455 78.625 C 228.491 78.281,228.491 77.719,228.455 77.375 C 228.419 77.031,228.389 77.313,228.389 78.000 M262.167 77.052 C 262.167 77.081,262.410 77.325,262.708 77.594 L 263.250 78.083 262.760 77.542 C 262.304 77.037,262.167 76.923,262.167 77.052 M152.833 77.552 C 152.833 77.581,153.077 77.825,153.375 78.094 L 153.917 78.583 153.427 78.042 C 152.971 77.537,152.833 77.423,152.833 77.552 M212.583 78.333 C 212.941 78.700,213.272 79.000,213.318 79.000 C 213.363 79.000,213.108 78.700,212.750 78.333 C 212.392 77.967,212.062 77.667,212.016 77.667 C 211.970 77.667,212.225 77.967,212.583 78.333 M131.828 79.458 L 130.917 80.417 131.875 79.506 C 132.402 79.005,132.833 78.573,132.833 78.547 C 132.833 78.424,132.674 78.568,131.828 79.458 M181.491 79.292 L 180.917 79.917 181.542 79.342 C 181.885 79.026,182.167 78.745,182.167 78.717 C 182.167 78.590,182.026 78.710,181.491 79.292 M302.333 79.417 C 301.928 79.829,301.635 80.167,301.681 80.167 C 301.726 80.167,302.095 79.829,302.500 79.417 C 302.905 79.004,303.199 78.667,303.153 78.667 C 303.107 78.667,302.738 79.004,302.333 79.417 M343.205 79.500 C 343.205 79.821,343.240 79.952,343.282 79.792 C 343.323 79.631,343.323 79.369,343.282 79.208 C 343.240 79.048,343.205 79.179,343.205 79.500 M154.667 79.385 C 154.667 79.414,154.910 79.658,155.208 79.927 L 155.750 80.417 155.260 79.875 C 154.804 79.370,154.667 79.257,154.667 79.385 M243.405 83.000 C 243.405 85.063,243.429 85.906,243.458 84.875 C 243.487 83.844,243.487 82.156,243.458 81.125 C 243.429 80.094,243.405 80.938,243.405 83.000 M62.372 80.167 C 62.372 80.487,62.406 80.619,62.448 80.458 C 62.490 80.298,62.490 80.035,62.448 79.875 C 62.406 79.715,62.372 79.846,62.372 80.167 M166.246 81.542 L 165.083 82.750 166.292 81.588 C 166.956 80.949,167.500 80.405,167.500 80.379 C 167.500 80.257,167.325 80.419,166.246 81.542 M336.746 81.542 L 335.583 82.750 336.792 81.588 C 337.914 80.508,338.076 80.333,337.954 80.333 C 337.928 80.333,337.385 80.877,336.746 81.542 M279.994 81.458 L 279.083 82.417 280.042 81.506 C 280.932 80.659,281.076 80.500,280.953 80.500 C 280.927 80.500,280.495 80.931,279.994 81.458 M218.288 81.120 C 218.584 81.157,219.109 81.158,219.455 81.122 C 219.800 81.086,219.558 81.055,218.917 81.055 C 218.275 81.054,217.992 81.083,218.288 81.120 M260.667 81.885 C 260.667 81.914,260.910 82.158,261.208 82.427 L 261.750 82.917 261.260 82.375 C 260.804 81.870,260.667 81.757,260.667 81.885 M132.412 83.542 L 131.250 84.750 132.458 83.588 C 133.123 82.949,133.667 82.405,133.667 82.379 C 133.667 82.257,133.492 82.419,132.412 83.542 M87.125 82.618 C 87.331 82.657,87.669 82.657,87.875 82.618 C 88.081 82.578,87.912 82.545,87.500 82.545 C 87.087 82.545,86.919 82.578,87.125 82.618 M85.460 82.785 C 85.668 82.824,85.968 82.823,86.127 82.781 C 86.286 82.739,86.117 82.707,85.750 82.709 C 85.383 82.711,85.253 82.745,85.460 82.785 M302.910 83.542 L 302.083 84.417 302.958 83.590 C 303.440 83.135,303.833 82.741,303.833 82.715 C 303.833 82.590,303.679 82.729,302.910 83.542 M102.573 83.375 L 102.083 83.917 102.625 83.427 C 102.923 83.158,103.167 82.914,103.167 82.885 C 103.167 82.757,103.029 82.870,102.573 83.375 M183.077 84.042 L 182.250 84.917 183.125 84.090 C 183.606 83.635,184.000 83.241,184.000 83.215 C 184.000 83.090,183.846 83.229,183.077 84.042 M324.333 83.750 C 324.644 84.071,324.936 84.333,324.982 84.333 C 325.028 84.333,324.811 84.071,324.500 83.750 C 324.189 83.429,323.897 83.167,323.851 83.167 C 323.805 83.167,324.022 83.429,324.333 83.750 M154.583 84.500 C 155.220 85.142,155.779 85.667,155.824 85.667 C 155.870 85.667,155.387 85.142,154.750 84.500 C 154.113 83.858,153.555 83.333,153.509 83.333 C 153.463 83.333,153.947 83.858,154.583 84.500 M75.208 83.619 C 75.460 83.658,75.873 83.658,76.125 83.619 C 76.377 83.581,76.171 83.550,75.667 83.550 C 75.162 83.550,74.956 83.581,75.208 83.619 M56.709 84.250 C 56.711 84.617,56.745 84.747,56.785 84.540 C 56.824 84.332,56.823 84.032,56.781 83.873 C 56.739 83.714,56.707 83.883,56.709 84.250 M68.961 83.787 C 69.261 83.825,69.711 83.824,69.961 83.786 C 70.212 83.748,69.967 83.717,69.417 83.718 C 68.867 83.719,68.662 83.750,68.961 83.787 M72.875 83.786 C 73.127 83.824,73.540 83.824,73.792 83.786 C 74.044 83.748,73.837 83.717,73.333 83.717 C 72.829 83.717,72.623 83.748,72.875 83.786 M275.208 84.455 C 275.552 84.491,276.115 84.491,276.458 84.455 C 276.802 84.419,276.521 84.389,275.833 84.389 C 275.146 84.389,274.865 84.419,275.208 84.455 M169.833 85.250 C 169.428 85.662,169.135 86.000,169.181 86.000 C 169.226 86.000,169.595 85.662,170.000 85.250 C 170.405 84.837,170.699 84.500,170.653 84.500 C 170.607 84.500,170.238 84.837,169.833 85.250 M99.662 86.125 L 98.583 87.250 99.708 86.171 C 100.327 85.578,100.833 85.072,100.833 85.046 C 100.833 84.924,100.664 85.080,99.662 86.125 M173.333 85.552 C 173.333 85.581,173.577 85.825,173.875 86.094 L 174.417 86.583 173.927 86.042 C 173.471 85.537,173.333 85.423,173.333 85.552 M86.463 86.122 C 86.855 86.157,87.455 86.157,87.796 86.121 C 88.137 86.085,87.817 86.057,87.083 86.057 C 86.350 86.058,86.071 86.087,86.463 86.122 M90.955 86.120 C 91.250 86.157,91.775 86.158,92.121 86.122 C 92.467 86.086,92.225 86.055,91.583 86.055 C 90.942 86.054,90.659 86.083,90.955 86.120 M81.375 86.288 C 81.719 86.324,82.281 86.324,82.625 86.288 C 82.969 86.252,82.688 86.223,82.000 86.223 C 81.313 86.223,81.031 86.252,81.375 86.288 M94.458 86.284 C 94.665 86.324,95.002 86.324,95.208 86.284 C 95.415 86.245,95.246 86.212,94.833 86.212 C 94.421 86.212,94.252 86.245,94.458 86.284 M78.042 86.455 C 78.385 86.491,78.948 86.491,79.292 86.455 C 79.635 86.419,79.354 86.389,78.667 86.389 C 77.979 86.389,77.698 86.419,78.042 86.455 M96.208 86.448 C 96.369 86.490,96.631 86.490,96.792 86.448 C 96.952 86.406,96.821 86.372,96.500 86.372 C 96.179 86.372,96.048 86.406,96.208 86.448 M75.292 86.618 C 75.498 86.657,75.835 86.657,76.042 86.618 C 76.248 86.578,76.079 86.545,75.667 86.545 C 75.254 86.545,75.085 86.578,75.292 86.618 M72.294 86.785 C 72.501 86.824,72.801 86.823,72.960 86.781 C 73.120 86.739,72.950 86.707,72.583 86.709 C 72.217 86.711,72.086 86.745,72.294 86.785 M69.042 86.948 C 69.202 86.990,69.465 86.990,69.625 86.948 C 69.785 86.906,69.654 86.872,69.333 86.872 C 69.012 86.872,68.881 86.906,69.042 86.948 M65.458 87.118 C 65.665 87.157,66.002 87.157,66.208 87.118 C 66.415 87.078,66.246 87.045,65.833 87.045 C 65.421 87.045,65.252 87.078,65.458 87.118 M123.788 87.454 C 124.084 87.490,124.609 87.491,124.955 87.455 C 125.300 87.419,125.058 87.389,124.417 87.388 C 123.775 87.387,123.492 87.417,123.788 87.454 M176.794 87.451 C 177.001 87.491,177.301 87.490,177.460 87.448 C 177.620 87.406,177.450 87.374,177.083 87.375 C 176.717 87.377,176.586 87.411,176.794 87.451 M294.121 87.454 C 294.417 87.490,294.942 87.491,295.288 87.455 C 295.634 87.419,295.392 87.389,294.750 87.388 C 294.108 87.387,293.825 87.417,294.121 87.454 " stroke="none" fill="#626262" fill-rule="evenodd"></path><path id="path4" d="M256.042 26.448 C 256.202 26.490,256.465 26.490,256.625 26.448 C 256.785 26.406,256.654 26.372,256.333 26.372 C 256.012 26.372,255.881 26.406,256.042 26.448 M260.250 28.167 C 260.608 28.533,260.938 28.833,260.984 28.833 C 261.030 28.833,260.775 28.533,260.417 28.167 C 260.059 27.800,259.728 27.500,259.682 27.500 C 259.637 27.500,259.892 27.800,260.250 28.167 M247.742 31.042 L 247.083 31.750 247.792 31.091 C 248.181 30.729,248.500 30.410,248.500 30.383 C 248.500 30.257,248.355 30.383,247.742 31.042 M131.826 32.708 C 132.235 33.144,132.591 33.500,132.618 33.500 C 132.743 33.500,132.611 33.350,131.875 32.660 L 131.083 31.917 131.826 32.708 M302.250 32.667 C 302.608 33.033,302.938 33.333,302.984 33.333 C 303.030 33.333,302.775 33.033,302.417 32.667 C 302.059 32.300,301.728 32.000,301.682 32.000 C 301.637 32.000,301.892 32.300,302.250 32.667 M294.742 32.875 L 294.083 33.583 294.792 32.925 C 295.181 32.562,295.500 32.243,295.500 32.216 C 295.500 32.090,295.355 32.216,294.742 32.875 M263.396 37.250 C 263.396 38.258,263.424 38.649,263.457 38.119 C 263.490 37.588,263.490 36.763,263.456 36.286 C 263.422 35.808,263.395 36.242,263.396 37.250 M148.548 38.583 C 148.549 39.042,148.581 39.209,148.620 38.956 C 148.658 38.703,148.657 38.328,148.617 38.123 C 148.578 37.918,148.546 38.125,148.548 38.583 M63.720 40.333 C 63.720 40.929,63.750 41.173,63.787 40.875 C 63.824 40.577,63.824 40.090,63.787 39.792 C 63.750 39.494,63.720 39.737,63.720 40.333 M168.545 40.000 C 168.545 40.412,168.578 40.581,168.618 40.375 C 168.657 40.169,168.657 39.831,168.618 39.625 C 168.578 39.419,168.545 39.587,168.545 40.000 M168.545 42.000 C 168.545 42.412,168.578 42.581,168.618 42.375 C 168.657 42.169,168.657 41.831,168.618 41.625 C 168.578 41.419,168.545 41.587,168.545 42.000 M204.709 42.917 C 204.711 43.283,204.745 43.414,204.785 43.206 C 204.824 42.999,204.823 42.699,204.781 42.540 C 204.739 42.380,204.707 42.550,204.709 42.917 M67.212 44.333 C 67.212 44.746,67.245 44.915,67.284 44.708 C 67.324 44.502,67.324 44.165,67.284 43.958 C 67.245 43.752,67.212 43.921,67.212 44.333 M140.720 45.000 C 140.720 45.596,140.750 45.840,140.787 45.542 C 140.824 45.244,140.824 44.756,140.787 44.458 C 140.750 44.160,140.720 44.404,140.720 45.000 M63.714 46.417 C 63.716 46.875,63.748 47.043,63.786 46.789 C 63.825 46.536,63.824 46.161,63.784 45.956 C 63.744 45.751,63.713 45.958,63.714 46.417 M204.558 47.333 C 204.558 48.112,204.587 48.431,204.622 48.042 C 204.657 47.652,204.657 47.015,204.622 46.625 C 204.587 46.235,204.558 46.554,204.558 47.333 M63.539 49.167 C 63.539 49.487,63.573 49.619,63.615 49.458 C 63.657 49.298,63.657 49.035,63.615 48.875 C 63.573 48.715,63.539 48.846,63.539 49.167 M252.662 49.792 L 251.583 50.917 252.708 49.838 C 253.327 49.245,253.833 48.739,253.833 48.713 C 253.833 48.590,253.664 48.747,252.662 49.792 M173.039 50.000 C 173.039 50.321,173.073 50.452,173.115 50.292 C 173.157 50.131,173.157 49.869,173.115 49.708 C 173.073 49.548,173.039 49.679,173.039 50.000 M63.372 50.833 C 63.372 51.154,63.406 51.285,63.448 51.125 C 63.490 50.965,63.490 50.702,63.448 50.542 C 63.406 50.381,63.372 50.512,63.372 50.833 M66.539 51.167 C 66.539 51.487,66.573 51.619,66.615 51.458 C 66.657 51.298,66.657 51.035,66.615 50.875 C 66.573 50.715,66.539 50.846,66.539 51.167 M204.712 51.333 C 204.712 51.746,204.745 51.915,204.784 51.708 C 204.824 51.502,204.824 51.165,204.784 50.958 C 204.745 50.752,204.712 50.921,204.712 51.333 M256.577 53.208 L 255.750 54.083 256.625 53.256 C 257.106 52.801,257.500 52.408,257.500 52.381 C 257.500 52.257,257.346 52.395,256.577 53.208 M173.209 53.417 C 173.211 53.783,173.245 53.914,173.285 53.706 C 173.324 53.499,173.323 53.199,173.281 53.040 C 173.239 52.880,173.207 53.050,173.209 53.417 M111.539 53.833 C 111.539 54.154,111.573 54.285,111.615 54.125 C 111.657 53.965,111.657 53.702,111.615 53.542 C 111.573 53.381,111.539 53.512,111.539 53.833 M314.720 55.167 C 314.720 55.762,314.750 56.006,314.787 55.708 C 314.824 55.410,314.824 54.923,314.787 54.625 C 314.750 54.327,314.720 54.571,314.720 55.167 M144.212 55.167 C 144.212 55.579,144.245 55.748,144.284 55.542 C 144.324 55.335,144.324 54.998,144.284 54.792 C 144.245 54.585,144.212 54.754,144.212 55.167 M111.390 56.417 C 111.391 57.150,111.420 57.429,111.456 57.037 C 111.491 56.645,111.490 56.045,111.454 55.704 C 111.419 55.363,111.390 55.683,111.390 56.417 M173.381 56.417 C 173.382 56.875,173.415 57.043,173.453 56.789 C 173.491 56.536,173.490 56.161,173.451 55.956 C 173.411 55.751,173.380 55.958,173.381 56.417 M238.387 57.333 C 238.387 57.929,238.417 58.173,238.454 57.875 C 238.491 57.577,238.491 57.090,238.454 56.792 C 238.417 56.494,238.387 56.737,238.387 57.333 M170.372 57.667 C 170.372 57.987,170.406 58.119,170.448 57.958 C 170.490 57.798,170.490 57.535,170.448 57.375 C 170.406 57.215,170.372 57.346,170.372 57.667 M173.552 59.250 C 173.553 59.800,173.584 60.005,173.621 59.705 C 173.658 59.406,173.657 58.956,173.619 58.705 C 173.581 58.455,173.551 58.700,173.552 59.250 M281.717 59.667 C 281.717 60.171,281.748 60.377,281.786 60.125 C 281.824 59.873,281.824 59.460,281.786 59.208 C 281.748 58.956,281.717 59.163,281.717 59.667 M111.217 60.000 C 111.217 60.504,111.248 60.710,111.286 60.458 C 111.324 60.206,111.324 59.794,111.286 59.542 C 111.248 59.290,111.217 59.496,111.217 60.000 M114.539 60.667 C 114.539 60.987,114.573 61.119,114.615 60.958 C 114.657 60.798,114.657 60.535,114.615 60.375 C 114.573 60.215,114.539 60.346,114.539 60.667 M238.575 66.167 C 238.575 69.421,238.597 70.752,238.625 69.125 C 238.652 67.498,238.652 64.835,238.625 63.208 C 238.597 61.581,238.575 62.913,238.575 66.167 M173.709 61.917 C 173.711 62.283,173.745 62.414,173.785 62.206 C 173.824 61.999,173.823 61.699,173.781 61.540 C 173.739 61.380,173.707 61.550,173.709 61.917 M114.372 62.167 C 114.372 62.487,114.406 62.619,114.448 62.458 C 114.490 62.298,114.490 62.035,114.448 61.875 C 114.406 61.715,114.372 61.846,114.372 62.167 M284.712 64.500 C 284.712 64.912,284.745 65.081,284.784 64.875 C 284.824 64.669,284.824 64.331,284.784 64.125 C 284.745 63.919,284.712 64.087,284.712 64.500 M114.212 64.667 C 114.212 65.079,114.245 65.248,114.284 65.042 C 114.324 64.835,114.324 64.498,114.284 64.292 C 114.245 64.085,114.212 64.254,114.212 64.667 M111.214 66.917 C 111.216 67.375,111.248 67.543,111.286 67.289 C 111.325 67.036,111.324 66.661,111.284 66.456 C 111.244 66.251,111.213 66.458,111.214 66.917 M247.164 68.042 C 248.125 69.027,248.931 69.833,248.955 69.833 C 249.076 69.833,248.872 69.620,247.208 67.997 L 245.417 66.250 247.164 68.042 M281.712 67.167 C 281.712 67.579,281.745 67.748,281.784 67.542 C 281.824 67.335,281.824 66.998,281.784 66.792 C 281.745 66.585,281.712 66.754,281.712 67.167 M171.205 68.500 C 171.205 68.821,171.240 68.952,171.282 68.792 C 171.323 68.631,171.323 68.369,171.282 68.208 C 171.240 68.048,171.205 68.179,171.205 68.500 M111.379 69.167 C 111.379 69.579,111.411 69.748,111.451 69.542 C 111.491 69.335,111.491 68.998,111.451 68.792 C 111.411 68.585,111.379 68.754,111.379 69.167 M114.212 69.333 C 114.212 69.746,114.245 69.915,114.284 69.708 C 114.324 69.502,114.324 69.165,114.284 68.958 C 114.245 68.752,114.212 68.921,114.212 69.333 M243.405 72.500 C 243.405 74.654,243.429 75.535,243.458 74.458 C 243.487 73.381,243.487 71.619,243.458 70.542 C 243.429 69.465,243.405 70.346,243.405 72.500 M284.712 69.333 C 284.712 69.746,284.745 69.915,284.784 69.708 C 284.824 69.502,284.824 69.165,284.784 68.958 C 284.745 68.752,284.712 68.921,284.712 69.333 M171.387 71.000 C 171.387 71.596,171.417 71.840,171.454 71.542 C 171.491 71.244,171.491 70.756,171.454 70.458 C 171.417 70.160,171.387 70.404,171.387 71.000 M174.209 71.583 C 174.211 71.950,174.245 72.080,174.285 71.873 C 174.324 71.666,174.323 71.366,174.281 71.206 C 174.239 71.047,174.207 71.217,174.209 71.583 M259.833 74.917 C 261.344 76.429,262.617 77.667,262.663 77.667 C 262.709 77.667,261.510 76.429,260.000 74.917 C 258.490 73.404,257.216 72.167,257.170 72.167 C 257.125 72.167,258.323 73.404,259.833 74.917 M171.552 74.083 C 171.553 74.633,171.584 74.838,171.621 74.539 C 171.658 74.239,171.657 73.789,171.619 73.539 C 171.581 73.288,171.551 73.533,171.552 74.083 M252.333 73.379 C 252.333 73.404,252.915 73.986,253.625 74.671 L 254.917 75.917 253.671 74.625 C 252.514 73.425,252.333 73.257,252.333 73.379 M174.381 74.583 C 174.382 75.042,174.415 75.209,174.453 74.956 C 174.491 74.703,174.490 74.328,174.451 74.123 C 174.411 73.918,174.380 74.125,174.381 74.583 M238.709 75.417 C 238.711 75.783,238.745 75.914,238.785 75.706 C 238.824 75.499,238.823 75.199,238.781 75.040 C 238.739 74.880,238.707 75.050,238.709 75.417 M174.542 76.750 C 174.544 77.117,174.578 77.247,174.618 77.040 C 174.658 76.832,174.656 76.532,174.615 76.373 C 174.573 76.214,174.540 76.383,174.542 76.750 M171.712 77.500 C 171.712 77.912,171.745 78.081,171.784 77.875 C 171.824 77.669,171.824 77.331,171.784 77.125 C 171.745 76.919,171.712 77.087,171.712 77.500 M106.042 77.448 C 106.202 77.490,106.465 77.490,106.625 77.448 C 106.785 77.406,106.654 77.372,106.333 77.372 C 106.013 77.372,105.881 77.406,106.042 77.448 M107.031 78.323 C 107.008 78.989,106.902 79.342,106.630 79.656 L 106.259 80.083 106.723 79.653 C 107.140 79.266,107.180 79.133,107.124 78.320 L 107.062 77.417 107.031 78.323 M323.167 77.552 C 323.167 77.581,323.410 77.825,323.708 78.094 L 324.250 78.583 323.760 78.042 C 323.304 77.537,323.167 77.423,323.167 77.552 M153.000 77.885 C 153.000 77.914,153.244 78.158,153.542 78.427 L 154.083 78.917 153.594 78.375 C 153.138 77.870,153.000 77.757,153.000 77.885 M257.167 78.379 C 257.167 78.404,257.748 78.986,258.458 79.671 L 259.750 80.917 258.504 79.625 C 257.347 78.425,257.167 78.257,257.167 78.379 M132.000 79.417 C 131.595 79.829,131.301 80.167,131.347 80.167 C 131.393 80.167,131.762 79.829,132.167 79.417 C 132.572 79.004,132.865 78.667,132.819 78.667 C 132.774 78.667,132.405 79.004,132.000 79.417 M222.494 79.792 L 221.583 80.750 222.542 79.839 C 223.432 78.993,223.576 78.833,223.453 78.833 C 223.427 78.833,222.995 79.265,222.494 79.792 M154.833 79.750 C 155.144 80.071,155.436 80.333,155.482 80.333 C 155.528 80.333,155.311 80.071,155.000 79.750 C 154.689 79.429,154.397 79.167,154.351 79.167 C 154.305 79.167,154.522 79.429,154.833 79.750 M181.000 79.917 C 180.595 80.329,180.301 80.667,180.347 80.667 C 180.393 80.667,180.762 80.329,181.167 79.917 C 181.572 79.504,181.865 79.167,181.819 79.167 C 181.774 79.167,181.405 79.504,181.000 79.917 M325.417 79.833 C 325.775 80.200,326.105 80.500,326.151 80.500 C 326.197 80.500,325.941 80.200,325.583 79.833 C 325.225 79.467,324.895 79.167,324.849 79.167 C 324.803 79.167,325.059 79.467,325.417 79.833 M337.906 80.542 L 337.417 81.083 337.958 80.594 C 338.463 80.138,338.577 80.000,338.448 80.000 C 338.419 80.000,338.175 80.244,337.906 80.542 M279.575 82.042 L 278.917 82.750 279.625 82.091 C 280.015 81.729,280.333 81.410,280.333 81.383 C 280.333 81.257,280.188 81.383,279.575 82.042 M336.406 82.042 L 335.917 82.583 336.458 82.094 C 336.963 81.638,337.077 81.500,336.948 81.500 C 336.919 81.500,336.675 81.744,336.406 82.042 M302.745 83.542 L 301.750 84.583 302.792 83.589 C 303.759 82.664,303.910 82.500,303.786 82.500 C 303.761 82.500,303.292 82.969,302.745 83.542 M183.658 83.292 L 183.083 83.917 183.708 83.342 C 184.052 83.026,184.333 82.745,184.333 82.717 C 184.333 82.590,184.192 82.710,183.658 83.292 M226.075 83.542 L 225.417 84.250 226.125 83.591 C 226.784 82.978,226.910 82.833,226.784 82.833 C 226.757 82.833,226.438 83.152,226.075 83.542 M101.909 83.875 L 101.250 84.583 101.958 83.925 C 102.617 83.312,102.743 83.167,102.617 83.167 C 102.590 83.167,102.271 83.485,101.909 83.875 M78.960 83.451 C 79.168 83.491,79.468 83.490,79.627 83.448 C 79.786 83.406,79.617 83.374,79.250 83.375 C 78.883 83.377,78.753 83.411,78.960 83.451 M77.208 83.615 C 77.369 83.657,77.631 83.657,77.792 83.615 C 77.952 83.573,77.821 83.539,77.500 83.539 C 77.179 83.539,77.048 83.573,77.208 83.615 M116.667 84.083 C 116.978 84.404,117.270 84.667,117.315 84.667 C 117.361 84.667,117.144 84.404,116.833 84.083 C 116.522 83.762,116.230 83.500,116.185 83.500 C 116.139 83.500,116.356 83.762,116.667 84.083 M162.042 83.619 C 162.294 83.658,162.706 83.658,162.958 83.619 C 163.210 83.581,163.004 83.550,162.500 83.550 C 161.996 83.550,161.790 83.581,162.042 83.619 M287.250 84.167 C 287.608 84.533,287.938 84.833,287.984 84.833 C 288.030 84.833,287.775 84.533,287.417 84.167 C 287.059 83.800,286.728 83.500,286.682 83.500 C 286.637 83.500,286.892 83.800,287.250 84.167 M332.542 83.619 C 332.794 83.658,333.206 83.658,333.458 83.619 C 333.710 83.581,333.504 83.550,333.000 83.550 C 332.496 83.550,332.290 83.581,332.542 83.619 M74.708 83.782 C 74.869 83.823,75.131 83.823,75.292 83.782 C 75.452 83.740,75.321 83.705,75.000 83.705 C 74.679 83.705,74.548 83.740,74.708 83.782 M70.708 83.955 C 71.052 83.991,71.615 83.991,71.958 83.955 C 72.302 83.919,72.021 83.889,71.333 83.889 C 70.646 83.889,70.365 83.919,70.708 83.955 M275.295 84.621 C 275.594 84.658,276.044 84.657,276.295 84.619 C 276.545 84.581,276.300 84.551,275.750 84.552 C 275.200 84.553,274.995 84.584,275.295 84.621 M340.077 85.375 L 339.250 86.250 340.125 85.423 C 340.606 84.968,341.000 84.574,341.000 84.548 C 341.000 84.424,340.846 84.562,340.077 85.375 M243.217 86.000 C 243.217 86.504,243.248 86.710,243.286 86.458 C 243.324 86.206,243.324 85.794,243.286 85.542 C 243.248 85.290,243.217 85.496,243.217 86.000 M219.708 85.948 C 219.869 85.990,220.131 85.990,220.292 85.948 C 220.452 85.906,220.321 85.872,220.000 85.872 C 219.679 85.872,219.548 85.906,219.708 85.948 M83.628 86.121 C 83.928 86.158,84.378 86.157,84.628 86.119 C 84.878 86.081,84.633 86.051,84.083 86.052 C 83.533 86.053,83.328 86.084,83.628 86.121 M93.375 86.115 C 93.535 86.157,93.798 86.157,93.958 86.115 C 94.119 86.073,93.987 86.039,93.667 86.039 C 93.346 86.039,93.215 86.073,93.375 86.115 M79.044 86.286 C 79.297 86.325,79.672 86.324,79.877 86.284 C 80.082 86.244,79.875 86.213,79.417 86.214 C 78.958 86.216,78.791 86.248,79.044 86.286 M75.877 86.453 C 76.131 86.491,76.506 86.490,76.711 86.451 C 76.916 86.411,76.708 86.380,76.250 86.381 C 75.792 86.382,75.624 86.415,75.877 86.453 M73.128 86.621 C 73.428 86.658,73.878 86.657,74.128 86.619 C 74.378 86.581,74.133 86.551,73.583 86.552 C 73.033 86.553,72.828 86.584,73.128 86.621 M70.794 86.785 C 71.001 86.824,71.301 86.823,71.460 86.781 C 71.620 86.739,71.450 86.707,71.083 86.709 C 70.717 86.711,70.586 86.745,70.794 86.785 M61.549 87.124 C 62.171 87.156,63.146 87.156,63.715 87.123 C 64.284 87.091,63.775 87.064,62.583 87.065 C 61.392 87.065,60.926 87.092,61.549 87.124 M176.625 87.284 C 176.831 87.324,177.169 87.324,177.375 87.284 C 177.581 87.245,177.412 87.212,177.000 87.212 C 176.588 87.212,176.419 87.245,176.625 87.284 M275.294 90.618 C 275.501 90.658,275.801 90.656,275.960 90.615 C 276.120 90.573,275.950 90.540,275.583 90.542 C 275.217 90.544,275.086 90.578,275.294 90.618 " stroke="none" fill="#8c8c8c" fill-rule="evenodd"></path></g></svg>